<svg width="27" height="20" viewBox="0 0 27 20" fill="none" xmlns="http://www.w3.org/2000/svg">
<path fillRule="evenodd" clipRule="evenodd" d="M0 1.53846C0 0.688793 0.516595 0 1.15385 0H25.7692C26.4065 0 26.9231 0.688793 26.9231 1.53846C26.9231 2.38813 26.4065 3.07692 25.7692 3.07692H1.15385C0.516595 3.07692 0 2.38813 0 1.53846Z" fill="#EDEDED"/>
<path fillRule="evenodd" clipRule="evenodd" d="M0 9.99989C0 9.15022 0.516595 8.46143 1.15385 8.46143H25.7692C26.4065 8.46143 26.9231 9.15022 26.9231 9.99989C26.9231 10.8496 26.4065 11.5383 25.7692 11.5383H1.15385C0.516595 11.5383 0 10.8496 0 9.99989Z" fill="#EDEDED"/>
<path fillRule="evenodd" clipRule="evenodd" d="M0 18.4613C0 17.6116 0.516595 16.9229 1.15385 16.9229H25.7692C26.4065 16.9229 26.9231 17.6116 26.9231 18.4613C26.9231 19.311 26.4065 19.9998 25.7692 19.9998H1.15385C0.516595 19.9998 0 19.311 0 18.4613Z" fill="#EDEDED"/>
</svg>
