<svg width="32" height="28" viewBox="0 0 32 28" fill="none" xmlns="http://www.w3.org/2000/svg">
<path d="M16 11.2486C17.4994 11.2486 18.7223 12.4715 18.7223 14C18.7223 15.4558 17.4994 16.6931 16 16.6931C14.5006 16.6931 13.2778 15.4558 13.2778 14C13.2778 12.4715 14.5006 11.2486 16 11.2486ZM9.2599 25.646C10.177 26.1992 12.186 25.3549 14.5006 23.1712C13.7436 22.3123 13.0012 21.3807 12.3024 20.4053C11.1294 20.2922 9.96318 20.1173 8.80862 19.8812C8.06618 22.9965 8.34278 25.1365 9.2599 25.646ZM10.2935 17.29L9.87132 16.5476C9.71118 16.9697 9.55105 17.3919 9.44915 17.7995C9.8422 17.8869 10.2789 17.9596 10.7302 18.0324L10.2935 17.29ZM19.8141 16.1836L20.9932 14L19.8141 11.8164C19.3774 11.0448 18.9115 10.3606 18.4894 9.67642C17.7033 9.63275 16.8735 9.63275 16 9.63275C15.1266 9.63275 14.2968 9.63275 13.5107 9.67642C13.0885 10.3606 12.6227 11.0448 12.186 11.8164L11.0068 14L12.186 16.1836C12.6227 16.9552 13.0885 17.6394 13.5107 18.3236C14.2968 18.3673 15.1266 18.3673 16 18.3673C16.8735 18.3673 17.7033 18.3673 18.4894 18.3236C18.9115 17.6394 19.3774 16.9552 19.8141 16.1836ZM16 6.40098C15.7234 6.72125 15.4323 7.05607 15.1411 7.44912H16.8589C16.5678 7.05607 16.2766 6.72125 16 6.40098ZM16 21.599C16.2766 21.2788 16.5678 20.9439 16.8589 20.5509H15.1411C15.4323 20.9439 15.7234 21.2788 16 21.599ZM22.7256 2.354C21.823 1.80081 19.8141 2.64515 17.4994 4.82877C18.2564 5.68766 18.9989 6.61935 19.6976 7.5947C20.8913 7.71116 22.0705 7.88585 23.1914 8.11877C23.9339 5.00346 23.6573 2.86351 22.7256 2.354ZM21.7066 10.71L22.1287 11.4524C22.2889 11.0303 22.449 10.6081 22.5509 10.2005C22.1578 10.1131 21.7211 10.0404 21.2698 9.96757L21.7066 10.71ZM23.8174 0.446963C25.9574 1.66979 26.1903 4.887 25.2877 8.64284C28.9853 9.73465 31.6493 11.5398 31.6493 14C31.6493 16.4602 28.9853 18.2653 25.2877 19.3572C26.1903 23.113 25.9574 26.3302 23.8174 27.553C21.692 28.7759 18.7951 27.3783 16 24.7143C13.205 27.3783 10.308 28.7759 8.16809 27.553C6.04269 26.3302 5.80977 23.113 6.71234 19.3572C3.01473 18.2653 0.350708 16.4602 0.350708 14C0.350708 11.5398 3.01473 9.73465 6.71234 8.64284C5.80977 4.887 6.04269 1.66979 8.16809 0.446963C10.308 -0.775867 13.205 0.621653 16 3.28568C18.7951 0.621653 21.692 -0.775867 23.8174 0.446963ZM23.3952 14C23.8902 15.0918 24.3269 16.1836 24.6909 17.29C27.7479 16.3729 29.4657 15.0627 29.4657 14C29.4657 12.9373 27.7479 11.6271 24.6909 10.71C24.3269 11.8164 23.8902 12.9082 23.3952 14ZM8.60481 14C8.10986 12.9082 7.67313 11.8164 7.30919 10.71C4.25212 11.6271 2.53433 12.9373 2.53433 14C2.53433 15.0627 4.25212 16.3729 7.30919 17.29C7.67313 16.1836 8.10986 15.0918 8.60481 14ZM21.7066 17.29L21.2698 18.0324C21.7211 17.9596 22.1578 17.8869 22.5509 17.7995C22.449 17.3919 22.2889 16.9697 22.1287 16.5476L21.7066 17.29ZM17.4994 23.1712C19.8141 25.3549 21.823 26.1992 22.7256 25.646C23.6573 25.1365 23.9339 22.9965 23.1914 19.8812C22.0705 20.1142 20.8913 20.2888 19.6976 20.4053C18.9989 21.3807 18.2564 22.3123 17.4994 23.1712ZM10.2935 10.71L10.7302 9.96757C10.2789 10.0404 9.8422 10.1131 9.44915 10.2005C9.55105 10.6081 9.71118 11.0303 9.87132 11.4524L10.2935 10.71ZM14.5006 4.82877C12.186 2.64515 10.177 1.80081 9.2599 2.354C8.34278 2.86351 8.06618 5.00346 8.80862 8.11877C9.96318 7.88272 11.1294 7.70778 12.3024 7.5947C13.0012 6.61935 13.7436 5.68766 14.5006 4.82877Z" fill="white" fill-opacity="0.5"/>
</svg>
