
<svg width="23" height="16" viewBox="0 0 23 16" fill="none" xmlns="http://www.w3.org/2000/svg">
<path d="M22.2105 13.5385C22.2105 14.1908 21.952 14.8185 21.4843 15.2738C21.0166 15.7415 20.4013 16 19.7489 16H2.51818C1.86587 16 1.23818 15.7415 0.782794 15.2738C0.315102 14.8062 0.0566406 14.1908 0.0566406 13.5385V2.46154C0.0566406 1.80923 0.315102 1.18154 0.782794 0.726154C1.25049 0.258462 1.86587 0 2.51818 0H19.7489C20.4013 0 21.0289 0.258462 21.4843 0.726154C21.952 1.19385 22.2105 1.80923 22.2105 2.46154V13.5385Z" fill="white" fill-opacity="0.1"/>
<path d="M22.1607 9.84615H12.9299V16H14.1607V12.4062L19.293 16H19.6991C20.0315 16 20.3515 15.9385 20.6468 15.8031C20.9422 15.68 21.2253 15.4954 21.4468 15.2615L15.4653 11.0769H17.6068L22.0499 14.1908C22.1115 13.9815 22.1484 13.7723 22.1484 13.5385V13.5015L18.6776 11.0769H22.1484V9.84615H22.1607ZM0.00683594 9.84615V11.0769H3.47761L0.00683594 13.5015V13.5385C0.00683594 14.2154 0.277605 14.8185 0.708374 15.2615L6.68991 11.0769H8.00684V11.6554L1.90222 15.9262C2.08684 15.9631 2.27145 16 2.46837 16H2.87453L8.00684 12.4062V16H9.23761V9.84615H0.00683594ZM22.1607 2.46154C22.1607 1.82154 21.9022 1.19385 21.4591 0.738464L15.4776 4.92308H14.1607V4.34462L20.2653 0.0738478C20.0807 0.0246171 19.8961 0 19.6991 0H19.293L14.1607 3.59385V0H12.9299V6.15385H22.1607V4.92308H18.7022L22.1607 2.49846V2.46154ZM8.00684 0V3.59385L2.87453 0H2.46837C2.13607 0 1.81607 0.0615383 1.52068 0.196923C1.2253 0.32 0.942221 0.504618 0.720682 0.738464L6.70222 4.92308H4.56068L0.117605 1.80923C0.0560667 2.01846 0.0191436 2.24 0.0191436 2.46154V2.49846L3.47761 4.92308H0.00683594V6.15385H9.23761V0H8.00684Z" fill="#DEDEDE"/>
</svg>
