<svg width="23" height="16" viewBox="0 0 23 16" fill="none" xmlns="http://www.w3.org/2000/svg">
<g clip-path="url(#clip0_830_2884)">
<path d="M22.6964 13.4301C22.6964 14.0696 22.443 14.685 21.9845 15.1314C21.5259 15.59 20.9226 15.8434 20.2831 15.8434H3.37812C2.7386 15.8434 2.12321 15.59 1.67676 15.1314C1.21824 14.6729 0.964844 14.0696 0.964844 13.4301V2.55829C0.964844 1.93084 1.2303 1.32752 1.67676 0.856935C2.13528 0.398413 2.7386 0.14502 3.37812 0.14502H20.271C20.9105 0.14502 21.5259 0.398413 21.9724 0.856935C22.4309 1.31546 22.6843 1.91877 22.6843 2.55829V13.418L22.6964 13.4301Z" fill="white" fill-opacity="0.1"/>
<path d="M0.976562 4.36816V11.608H22.696V4.36816H0.976562ZM5.01879 10.4979C5.01879 10.6789 4.86193 10.8357 4.68094 10.8357H3.5467C3.3657 10.8357 3.20884 10.6789 3.20884 10.4979V10.4375C3.20884 10.2807 3.3295 10.16 3.48637 10.16C3.64323 10.16 3.76389 10.0394 3.76389 9.88249V6.37118C3.76389 6.16605 3.93282 6.00919 4.12588 6.00919C4.31895 6.00919 4.48787 6.17812 4.48787 6.37118V9.89456C4.48787 10.0394 4.60854 10.16 4.75333 10.16C4.89813 10.16 5.01879 10.2807 5.01879 10.4134V10.4979ZM6.82875 10.8237C6.34609 10.8237 5.88757 10.6306 5.54971 10.2927C5.21186 9.95489 5.01879 9.49637 5.01879 9.01371V7.25203C5.01879 6.9745 5.19979 6.73317 5.44112 6.64871C5.17566 6.49184 5.01879 6.28672 5.01879 6.06952C5.01879 5.96092 5.05499 5.86439 5.12739 5.76786C5.06706 5.73166 5.01879 5.67133 5.01879 5.62307C5.01879 5.36967 5.82724 5.16454 6.82875 5.16454C7.83026 5.16454 8.6387 5.36967 8.6387 5.62307C8.6387 5.67133 8.6025 5.7196 8.53011 5.76786C8.59044 5.86439 8.6387 5.96092 8.6387 6.06952C8.6387 6.28672 8.46977 6.49184 8.21638 6.64871C8.46977 6.74524 8.6387 6.9745 8.6387 7.25203V9.01371C8.6387 9.49637 8.44564 9.95489 8.10778 10.2927C7.76993 10.6306 7.3114 10.8237 6.82875 10.8237ZM10.4487 10.4979C10.4487 10.6789 10.2918 10.8357 10.1108 10.8357H8.97656C8.79557 10.8357 8.6387 10.6789 8.6387 10.4979V10.4375C8.6387 10.2807 8.75937 10.16 8.91623 10.16C9.07309 10.16 9.19376 10.0394 9.19376 9.88249V6.37118C9.19376 6.16605 9.36269 6.00919 9.55575 6.00919C9.74881 6.00919 9.91774 6.17812 9.91774 6.37118V9.89456C9.91774 10.0394 10.0384 10.16 10.1832 10.16C10.328 10.16 10.4487 10.2807 10.4487 10.4134V10.4979Z" fill="#D9D9D9"/>
</g>
<defs>
<clipPath id="clip0_830_2884">
<rect width="22.0332" height="16" fill="white" transform="translate(0.819336)"/>
</clipPath>
</defs>
</svg>
