<svg width="23" height="16" viewBox="0 0 23 16" fill="none" xmlns="http://www.w3.org/2000/svg">
<path d="M23.0064 13.5385C23.0064 14.1908 22.7479 14.8185 22.2802 15.2738C21.8125 15.7415 21.1972 16 20.5448 16H3.31408C2.66177 16 2.03408 15.7415 1.57869 15.2738C1.111 14.8062 0.852539 14.1908 0.852539 13.5385V2.46154C0.852539 1.80923 1.12331 1.19385 1.57869 0.726154C2.04639 0.258462 2.66177 0 3.31408 0H20.5448C21.1972 0 21.8248 0.258462 22.2802 0.726154C22.7479 1.19385 23.0064 1.80923 23.0064 2.46154V13.5385Z" fill="white" fill-opacity="0.1"/>
<path d="M8.2373 0H15.6219V16H8.2373V0Z" fill="#DEDEDE"/>
</svg>
