<svg width="23" height="16" viewBox="0 0 23 16" fill="none" xmlns="http://www.w3.org/2000/svg">
<path d="M22.8199 13.5385C22.8199 14.1908 22.5614 14.8185 22.0937 15.2738C21.626 15.7415 21.0106 16 20.3583 16H3.12755C2.47525 16 1.84755 15.7415 1.39217 15.2738C0.924477 14.8062 0.666016 14.1908 0.666016 13.5385V2.46154C0.666016 1.80923 0.936785 1.19385 1.39217 0.726154C1.85986 0.258462 2.47525 0 3.12755 0H20.3583C21.0106 0 21.6383 0.258462 22.0937 0.726154C22.5614 1.19385 22.8199 1.80923 22.8199 2.46154V13.5385Z" fill="white" fill-opacity="0.1"/>
<path d="M11.743 1.15674L2.68457 8.01212L11.743 14.8552L20.8015 8.01212L11.743 1.15674ZM11.7307 3.98751C13.9215 3.98751 15.7061 5.77212 15.7061 7.96289C15.7061 8.2952 15.6569 8.6152 15.5707 8.92289C13.8107 7.19982 10.7215 6.09212 8.23534 6.09212C8.89996 4.84905 10.2046 3.98751 11.7184 3.98751H11.7307ZM8.14919 6.26443C8.09995 6.36289 8.06303 6.46135 8.02611 6.55982C8.06303 6.46135 8.11226 6.36289 8.14919 6.26443ZM7.91534 6.92905C7.89072 7.03982 7.8538 7.16289 7.82919 7.27366C7.8538 7.15059 7.87842 7.03982 7.91534 6.92905ZM11.7307 11.9383C9.53995 11.9383 7.75534 10.1537 7.75534 7.96289C7.75534 7.75366 7.77996 7.54443 7.81688 7.3352C10.2784 7.16289 13.6015 8.50443 15.0292 10.166C14.3153 11.2367 13.0969 11.9383 11.7184 11.9383H11.7307Z" fill="#DEDEDE"/>
</svg>
